<?xml version="1.0" standalone="no"?>
<!DOCTYPE svg PUBLIC "-//W3C//DTD SVG 20010904//EN"
 "http://www.w3.org/TR/2001/REC-SVG-20010904/DTD/svg10.dtd">
<svg version="1.0" xmlns="http://www.w3.org/2000/svg"
 width="800.000000pt" height="800.000000pt" viewBox="0 0 800.000000 800.000000"
 preserveAspectRatio="xMidYMid meet">

<g transform="translate(0.000000,800.000000) scale(0.100000,-0.100000)"
fill="#000000" stroke="none">
<path d="M3805 7959 c-432 -20 -850 -111 -1265 -274 -145 -57 -439 -204 -589
-294 -873 -528 -1509 -1374 -1780 -2366 -154 -564 -178 -1221 -66 -1792 129
-653 394 -1222 812 -1748 198 -249 528 -557 803 -751 544 -383 1109 -600 1820
-701 160 -22 760 -26 910 -5 290 40 526 91 765 164 426 131 898 381 1260 667
765 605 1279 1459 1455 2416 48 262 55 356 55 715 -1 303 -3 364 -23 505 -66
465 -179 841 -372 1235 -361 734 -904 1313 -1612 1718 -449 257 -937 419
-1464 487 -104 13 -489 37 -534 33 -8 0 -87 -4 -175 -9z"/>
</g>
</svg>
